<?xml version="1.0" encoding="utf-8"?>
<!-- Generator: Adobe Illustrator 16.0.0, SVG Export Plug-In . SVG Version: 6.00 Build 0)  -->
<!DOCTYPE svg PUBLIC "-//W3C//DTD SVG 1.1//EN" "http://www.w3.org/Graphics/SVG/1.1/DTD/svg11.dtd">
<svg version="1.1" id="Layer_1" xmlns="http://www.w3.org/2000/svg" xmlns:xlink="http://www.w3.org/1999/xlink" x="0px" y="0px"
	 width="360px" height="460px" viewBox="0 0 360 460" enable-background="new 0 0 360 460" xml:space="preserve">
<g>
	<defs>
		<rect id="SVGID_1_" y="14.931" width="359.998" height="430.137"/>
	</defs>
	<clipPath id="SVGID_2_">
		<use xlink:href="#SVGID_1_"  overflow="visible"/>
	</clipPath>
	<path clip-path="url(#SVGID_2_)" fill="#FFFFFF" d="M283.291,382.488c-17.737,8.873-53.221,17.742-98.683,17.742
		c-105.333,0-184.606-66.525-184.606-189.049c0-116.977,79.273-196.254,195.142-196.254c46.567,0,75.951,9.979,88.703,16.636
		l-11.642,39.358C253.911,62.052,227.854,55.4,196.808,55.4c-87.594,0-145.803,55.993-145.803,154.119
		c0,91.478,52.667,150.243,143.583,150.243c29.388,0,59.324-6.104,78.725-15.525L283.291,382.488z"/>
	<path clip-path="url(#SVGID_2_)" fill="#FFFFFF" d="M170.6,252.441h47.891c50.035,0,81.785-27.442,81.785-68.87
		c0-46.815-33.899-67.264-83.399-67.799c-22.604,0-38.746,2.154-46.276,4.299V252.441z M123.787,87.256
		c23.675-4.843,57.575-7.533,89.86-7.533c50.036,0,82.321,9.143,104.924,29.591c18.295,16.145,28.517,40.893,28.517,68.87
		c0,47.891-30.136,79.636-68.335,92.552v1.613c27.978,9.688,44.657,35.51,53.27,73.18c11.836,50.578,20.448,85.549,27.977,99.545
		h-48.426c-5.918-10.227-13.986-41.434-24.212-86.625c-10.758-50.049-30.132-68.879-72.639-70.494H170.6v157.119h-46.813V87.256z"/>
</g>
</svg>
